<?xml version="1.0" standalone="no"?>
<!DOCTYPE svg PUBLIC "-//W3C//DTD SVG 20010904//EN"
 "http://www.w3.org/TR/2001/REC-SVG-20010904/DTD/svg10.dtd">
<svg version="1.0" xmlns="http://www.w3.org/2000/svg"
 width="234.000000pt" height="234.000000pt" viewBox="0 0 234.000000 234.000000"
 preserveAspectRatio="xMidYMid meet">
<metadata>
Created by potrace 1.14, written by Peter Selinger 2001-2017
</metadata>
<g transform="translate(0.000000,234.000000) scale(0.100000,-0.100000)"
fill="#000000" stroke="none">
<path d="M0 1508 c0 -7 36 -163 80 -347 44 -184 80 -336 80 -338 0 -2 56 -3
125 -3 l124 0 11 38 c6 20 33 120 60 222 27 102 49 172 50 155 1 -16 23 -115
48 -220 l47 -190 120 0 119 0 13 53 c13 51 13 56 -11 105 -51 104 -51 258 -1
357 29 57 86 117 139 145 20 11 36 23 36 27 0 5 -49 8 -110 8 -60 0 -110 -2
-110 -3 0 -2 -13 -92 -30 -200 -16 -108 -31 -212 -31 -229 -1 -20 -3 -25 -6
-13 -2 11 -18 85 -34 165 -17 80 -37 176 -46 213 l-15 68 -121 -3 -122 -3 -56
-215 c-34 -131 -58 -207 -62 -195 -3 11 -18 109 -33 218 l-27 197 -119 0 c-88
0 -118 -3 -118 -12z"/>
<path d="M1459 1466 c-11 -50 -10 -57 15 -107 52 -107 56 -224 13 -339 -23
-62 -117 -165 -161 -176 -56 -14 -21 -24 82 -24 l108 0 28 197 c37 255 36 252
56 157 9 -43 30 -141 46 -216 l29 -138 122 0 122 0 10 38 c6 20 33 125 60 232
28 107 51 181 51 164 0 -31 45 -366 55 -411 5 -22 9 -23 125 -23 120 0 120 0
115 23 -3 12 -40 168 -83 347 l-77 325 -126 3 -125 3 -12 -48 c-6 -26 -31
-124 -55 -216 l-44 -169 -52 216 -53 216 -118 0 -119 0 -12 -54z"/>
<path d="M1120 1343 c-51 -26 -80 -89 -80 -175 0 -120 45 -183 130 -183 55 0
93 27 116 82 20 47 18 170 -4 212 -34 68 -102 95 -162 64z"/>
</g>
</svg>
